<mxfile host="app.diagrams.net" modified="2023-08-28T07:08:28.678Z" agent="Mozilla/5.0 (Windows NT 10.0; Win64; x64; rv:109.0) Gecko/20100101 Firefox/116.0" etag="smLeAziIrJ5X_gDasjbU" version="21.6.9" type="device">
  <diagram name="Страница — 1" id="htXxGWYckLKl2Z1rYS9U">
    <mxGraphModel dx="1434" dy="754" grid="1" gridSize="10" guides="1" tooltips="1" connect="1" arrows="1" fold="1" page="1" pageScale="1" pageWidth="827" pageHeight="1169" math="0" shadow="0">
      <root>
        <mxCell id="0" />
        <mxCell id="1" parent="0" />
        <mxCell id="wXPBnN2L5Kcy-njvycfA-1" value="&lt;b&gt;&lt;u&gt;&lt;font style=&quot;font-size: 18px;&quot;&gt;Диаграмма использования.&lt;/font&gt;&lt;/u&gt;&lt;/b&gt;&amp;nbsp;&amp;nbsp; &lt;font style=&quot;font-size: 14px;&quot;&gt;Система регистрации (записи) на прием к врачу в больнице&lt;/font&gt;" style="text;html=1;strokeColor=none;fillColor=none;align=center;verticalAlign=middle;whiteSpace=wrap;rounded=0;" vertex="1" parent="1">
          <mxGeometry x="40" y="20" width="720" height="30" as="geometry" />
        </mxCell>
        <mxCell id="wXPBnN2L5Kcy-njvycfA-12" value="" style="edgeStyle=orthogonalEdgeStyle;rounded=0;orthogonalLoop=1;jettySize=auto;html=1;entryX=0;entryY=0.5;entryDx=0;entryDy=0;" edge="1" parent="1" source="wXPBnN2L5Kcy-njvycfA-2" target="wXPBnN2L5Kcy-njvycfA-13">
          <mxGeometry relative="1" as="geometry">
            <mxPoint x="230" y="310" as="targetPoint" />
          </mxGeometry>
        </mxCell>
        <mxCell id="wXPBnN2L5Kcy-njvycfA-2" value="Клиент" style="shape=umlActor;verticalLabelPosition=bottom;verticalAlign=top;html=1;outlineConnect=0;" vertex="1" parent="1">
          <mxGeometry x="130" y="280" width="30" height="60" as="geometry" />
        </mxCell>
        <mxCell id="wXPBnN2L5Kcy-njvycfA-49" value="" style="edgeStyle=orthogonalEdgeStyle;rounded=0;orthogonalLoop=1;jettySize=auto;html=1;" edge="1" parent="1" source="wXPBnN2L5Kcy-njvycfA-3" target="wXPBnN2L5Kcy-njvycfA-48">
          <mxGeometry relative="1" as="geometry" />
        </mxCell>
        <mxCell id="wXPBnN2L5Kcy-njvycfA-72" style="edgeStyle=orthogonalEdgeStyle;rounded=0;orthogonalLoop=1;jettySize=auto;html=1;entryX=0;entryY=0.5;entryDx=0;entryDy=0;" edge="1" parent="1" target="wXPBnN2L5Kcy-njvycfA-71">
          <mxGeometry relative="1" as="geometry">
            <mxPoint x="145" y="780" as="sourcePoint" />
            <Array as="points">
              <mxPoint x="145" y="900" />
            </Array>
          </mxGeometry>
        </mxCell>
        <mxCell id="wXPBnN2L5Kcy-njvycfA-3" value="Администратор" style="shape=umlActor;verticalLabelPosition=bottom;verticalAlign=top;html=1;outlineConnect=0;" vertex="1" parent="1">
          <mxGeometry x="130" y="690" width="30" height="60" as="geometry" />
        </mxCell>
        <mxCell id="wXPBnN2L5Kcy-njvycfA-44" style="edgeStyle=orthogonalEdgeStyle;rounded=0;orthogonalLoop=1;jettySize=auto;html=1;entryX=1;entryY=0.5;entryDx=0;entryDy=0;" edge="1" parent="1" source="wXPBnN2L5Kcy-njvycfA-4" target="wXPBnN2L5Kcy-njvycfA-15">
          <mxGeometry relative="1" as="geometry" />
        </mxCell>
        <mxCell id="wXPBnN2L5Kcy-njvycfA-4" value="Врач" style="shape=umlActor;verticalLabelPosition=bottom;verticalAlign=top;html=1;outlineConnect=0;" vertex="1" parent="1">
          <mxGeometry x="1020" y="280" width="30" height="60" as="geometry" />
        </mxCell>
        <mxCell id="wXPBnN2L5Kcy-njvycfA-13" value="Create заявку" style="ellipse;whiteSpace=wrap;html=1;" vertex="1" parent="1">
          <mxGeometry x="302.5" y="270" width="170" height="80" as="geometry" />
        </mxCell>
        <mxCell id="wXPBnN2L5Kcy-njvycfA-15" value="&lt;div&gt;Display&amp;nbsp;schedule&lt;/div&gt;&lt;div&gt;записи к врачу&lt;br&gt; &lt;/div&gt;" style="ellipse;whiteSpace=wrap;html=1;" vertex="1" parent="1">
          <mxGeometry x="565" y="270" width="170" height="80" as="geometry" />
        </mxCell>
        <mxCell id="wXPBnN2L5Kcy-njvycfA-17" value="" style="endArrow=classic;html=1;rounded=0;exitX=1;exitY=0.5;exitDx=0;exitDy=0;" edge="1" parent="1" source="wXPBnN2L5Kcy-njvycfA-13">
          <mxGeometry relative="1" as="geometry">
            <mxPoint x="400" y="307" as="sourcePoint" />
            <mxPoint x="565" y="310" as="targetPoint" />
          </mxGeometry>
        </mxCell>
        <mxCell id="wXPBnN2L5Kcy-njvycfA-18" value="Include" style="edgeLabel;resizable=0;html=1;align=center;verticalAlign=middle;" connectable="0" vertex="1" parent="wXPBnN2L5Kcy-njvycfA-17">
          <mxGeometry relative="1" as="geometry">
            <mxPoint x="-3" y="-12" as="offset" />
          </mxGeometry>
        </mxCell>
        <mxCell id="wXPBnN2L5Kcy-njvycfA-21" value="Correct заявки" style="ellipse;whiteSpace=wrap;html=1;" vertex="1" parent="1">
          <mxGeometry x="60" y="120" width="170" height="80" as="geometry" />
        </mxCell>
        <mxCell id="wXPBnN2L5Kcy-njvycfA-25" value="" style="endArrow=classic;html=1;rounded=0;entryX=0.5;entryY=1;entryDx=0;entryDy=0;" edge="1" parent="1" source="wXPBnN2L5Kcy-njvycfA-2" target="wXPBnN2L5Kcy-njvycfA-21">
          <mxGeometry width="50" height="50" relative="1" as="geometry">
            <mxPoint x="192.5" y="390" as="sourcePoint" />
            <mxPoint x="242.5" y="340" as="targetPoint" />
          </mxGeometry>
        </mxCell>
        <mxCell id="wXPBnN2L5Kcy-njvycfA-33" value="&lt;div&gt;Display&lt;br&gt;&lt;/div&gt;&lt;div&gt;заявки&lt;br&gt;&lt;/div&gt;" style="ellipse;whiteSpace=wrap;html=1;" vertex="1" parent="1">
          <mxGeometry x="60" y="480" width="170" height="80" as="geometry" />
        </mxCell>
        <mxCell id="wXPBnN2L5Kcy-njvycfA-36" value="" style="endArrow=classic;html=1;rounded=0;entryX=0.5;entryY=0;entryDx=0;entryDy=0;" edge="1" parent="1" target="wXPBnN2L5Kcy-njvycfA-33">
          <mxGeometry width="50" height="50" relative="1" as="geometry">
            <mxPoint x="145" y="370" as="sourcePoint" />
            <mxPoint x="260" y="500" as="targetPoint" />
          </mxGeometry>
        </mxCell>
        <mxCell id="wXPBnN2L5Kcy-njvycfA-37" value="" style="endArrow=classic;html=1;rounded=0;entryX=0.5;entryY=1;entryDx=0;entryDy=0;" edge="1" parent="1" source="wXPBnN2L5Kcy-njvycfA-3" target="wXPBnN2L5Kcy-njvycfA-33">
          <mxGeometry width="50" height="50" relative="1" as="geometry">
            <mxPoint x="160" y="690" as="sourcePoint" />
            <mxPoint x="210" y="640" as="targetPoint" />
          </mxGeometry>
        </mxCell>
        <mxCell id="wXPBnN2L5Kcy-njvycfA-45" value="&lt;div&gt;Correct schedule&lt;/div&gt;&lt;div&gt;записи к врачу&lt;br&gt;&lt;/div&gt;" style="ellipse;whiteSpace=wrap;html=1;" vertex="1" parent="1">
          <mxGeometry x="300" y="480" width="175" height="80" as="geometry" />
        </mxCell>
        <mxCell id="wXPBnN2L5Kcy-njvycfA-46" value="" style="endArrow=classic;html=1;rounded=0;entryX=0.5;entryY=1;entryDx=0;entryDy=0;" edge="1" parent="1" target="wXPBnN2L5Kcy-njvycfA-45">
          <mxGeometry width="50" height="50" relative="1" as="geometry">
            <mxPoint x="170" y="700" as="sourcePoint" />
            <mxPoint x="520" y="580" as="targetPoint" />
          </mxGeometry>
        </mxCell>
        <mxCell id="wXPBnN2L5Kcy-njvycfA-56" value="" style="endArrow=classic;html=1;rounded=0;entryX=0.5;entryY=1;entryDx=0;entryDy=0;exitX=0.5;exitY=0;exitDx=0;exitDy=0;" edge="1" parent="1" source="wXPBnN2L5Kcy-njvycfA-48" target="wXPBnN2L5Kcy-njvycfA-15">
          <mxGeometry relative="1" as="geometry">
            <mxPoint x="550" y="716" as="sourcePoint" />
            <mxPoint x="608.03" y="700" as="targetPoint" />
          </mxGeometry>
        </mxCell>
        <mxCell id="wXPBnN2L5Kcy-njvycfA-57" value="Include" style="edgeLabel;resizable=0;html=1;align=center;verticalAlign=middle;" connectable="0" vertex="1" parent="wXPBnN2L5Kcy-njvycfA-56">
          <mxGeometry relative="1" as="geometry">
            <mxPoint x="-3" y="-12" as="offset" />
          </mxGeometry>
        </mxCell>
        <mxCell id="wXPBnN2L5Kcy-njvycfA-48" value="&lt;div&gt;Confirm&lt;br&gt;&lt;/div&gt;&lt;div&gt;заявки&lt;br&gt;&lt;/div&gt;" style="ellipse;whiteSpace=wrap;html=1;" vertex="1" parent="1">
          <mxGeometry x="565" y="680" width="170" height="80" as="geometry" />
        </mxCell>
        <mxCell id="wXPBnN2L5Kcy-njvycfA-58" value="Participate in consultation&lt;br&gt;&lt;div&gt;&lt;/div&gt;" style="ellipse;whiteSpace=wrap;html=1;" vertex="1" parent="1">
          <mxGeometry x="430" y="120" width="170" height="80" as="geometry" />
        </mxCell>
        <mxCell id="wXPBnN2L5Kcy-njvycfA-63" value="" style="endArrow=classic;html=1;rounded=0;entryX=1;entryY=0.5;entryDx=0;entryDy=0;" edge="1" parent="1" target="wXPBnN2L5Kcy-njvycfA-58">
          <mxGeometry width="50" height="50" relative="1" as="geometry">
            <mxPoint x="1030" y="280" as="sourcePoint" />
            <mxPoint x="1080" y="230" as="targetPoint" />
          </mxGeometry>
        </mxCell>
        <mxCell id="wXPBnN2L5Kcy-njvycfA-64" value="" style="endArrow=classic;html=1;rounded=0;entryX=0;entryY=0.5;entryDx=0;entryDy=0;" edge="1" parent="1" target="wXPBnN2L5Kcy-njvycfA-58">
          <mxGeometry width="50" height="50" relative="1" as="geometry">
            <mxPoint x="160" y="280" as="sourcePoint" />
            <mxPoint x="210" y="230" as="targetPoint" />
          </mxGeometry>
        </mxCell>
        <mxCell id="wXPBnN2L5Kcy-njvycfA-66" value="" style="endArrow=classic;html=1;rounded=0;exitX=0.5;exitY=1;exitDx=0;exitDy=0;entryX=0.5;entryY=0;entryDx=0;entryDy=0;" edge="1" parent="1" source="wXPBnN2L5Kcy-njvycfA-13" target="wXPBnN2L5Kcy-njvycfA-45">
          <mxGeometry relative="1" as="geometry">
            <mxPoint x="364" y="420" as="sourcePoint" />
            <mxPoint x="464" y="420" as="targetPoint" />
          </mxGeometry>
        </mxCell>
        <mxCell id="wXPBnN2L5Kcy-njvycfA-68" value="Include" style="edgeLabel;html=1;align=center;verticalAlign=middle;resizable=0;points=[];" vertex="1" connectable="0" parent="wXPBnN2L5Kcy-njvycfA-66">
          <mxGeometry x="-0.12" y="-3" relative="1" as="geometry">
            <mxPoint as="offset" />
          </mxGeometry>
        </mxCell>
        <mxCell id="wXPBnN2L5Kcy-njvycfA-69" value="" style="endArrow=classic;html=1;rounded=0;exitX=1;exitY=0.5;exitDx=0;exitDy=0;entryX=0.082;entryY=0.163;entryDx=0;entryDy=0;entryPerimeter=0;" edge="1" parent="1" target="wXPBnN2L5Kcy-njvycfA-15">
          <mxGeometry relative="1" as="geometry">
            <mxPoint x="230" y="159.5" as="sourcePoint" />
            <mxPoint x="322" y="159.5" as="targetPoint" />
          </mxGeometry>
        </mxCell>
        <mxCell id="wXPBnN2L5Kcy-njvycfA-70" value="Include" style="edgeLabel;resizable=0;html=1;align=center;verticalAlign=middle;" connectable="0" vertex="1" parent="wXPBnN2L5Kcy-njvycfA-69">
          <mxGeometry relative="1" as="geometry">
            <mxPoint x="-3" y="-12" as="offset" />
          </mxGeometry>
        </mxCell>
        <mxCell id="wXPBnN2L5Kcy-njvycfA-71" value="&lt;div&gt;Contact to client&amp;nbsp;&lt;/div&gt;&lt;div&gt;on the phone &lt;/div&gt;" style="ellipse;whiteSpace=wrap;html=1;" vertex="1" parent="1">
          <mxGeometry x="270" y="860" width="170" height="80" as="geometry" />
        </mxCell>
      </root>
    </mxGraphModel>
  </diagram>
</mxfile>
